G04 PROTEUS RS274X GERBER FILE*
%FSLAX45Y45*%
%MOMM*%
G01*
%ADD11C,0.508000*%
%ADD12R,1.905000X1.905000*%
%ADD13C,2.286000*%
%ADD14R,2.032000X2.032000*%
%ADD15C,1.778000*%
%ADD16C,0.203200*%
D11*
X-864000Y-7648000D02*
X+1651000Y-7648000D01*
X+1778000Y-7521000D01*
X+1778000Y-2163000D01*
X+2014000Y-2163000D01*
X-311400Y-4598700D02*
X-311400Y-3910400D01*
X+290000Y-3309000D01*
X+290000Y-4579000D02*
X+444500Y-4424500D01*
X+444500Y-3556000D01*
X+573800Y-3426700D01*
X+1585000Y-3426700D01*
X-864000Y-5870000D02*
X+1143000Y-5870000D01*
X+1326300Y-5686700D01*
X+1326300Y-5260300D01*
X-864000Y-5616000D02*
X+889000Y-5616000D01*
X+1072300Y-5432700D01*
X+1072300Y-5260300D01*
X-864000Y-4854000D02*
X+635000Y-4854000D01*
X+818300Y-5037300D01*
X+818300Y-5260300D01*
X-2388000Y-4600000D02*
X-2540000Y-4600000D01*
X-2540000Y-3302000D01*
X-2413000Y-3175000D01*
X-825500Y-3175000D01*
X-698500Y-3302000D01*
X-698500Y-4600000D01*
X-864000Y-4600000D01*
X-2388000Y-5870000D02*
X-1270000Y-5870000D01*
X-1143000Y-5743000D01*
X-1143000Y-4064000D01*
X-1001000Y-3922000D01*
X-1001000Y-3457000D01*
X-2388000Y-5616000D02*
X-1397000Y-5616000D01*
X-1255000Y-5474000D01*
X-1255000Y-3457000D01*
X-2388000Y-5362000D02*
X-1651000Y-5362000D01*
X-1509000Y-5220000D01*
X-1509000Y-3457000D01*
D12*
X-864000Y-7648000D03*
X-864000Y-7394000D03*
X-864000Y-7140000D03*
X-864000Y-6886000D03*
X-864000Y-6632000D03*
X-864000Y-6378000D03*
X-864000Y-6124000D03*
X-864000Y-5870000D03*
X-864000Y-5616000D03*
X-864000Y-5362000D03*
X-864000Y-5108000D03*
X-864000Y-4854000D03*
X-864000Y-4600000D03*
X-864000Y-4346000D03*
X-864000Y-4092000D03*
X-2388000Y-4092000D03*
X-2388000Y-4346000D03*
X-2388000Y-4600000D03*
X-2388000Y-4854000D03*
X-2388000Y-5108000D03*
X-2388000Y-5362000D03*
X-2388000Y-5616000D03*
X-2388000Y-5870000D03*
X-2388000Y-6124000D03*
X-2388000Y-6378000D03*
X-2388000Y-6632000D03*
X-2388000Y-6886000D03*
X-2388000Y-7140000D03*
X-2388000Y-7394000D03*
X-2388000Y-7648000D03*
X+564300Y-5260300D03*
X+818300Y-5260300D03*
X+1072300Y-5260300D03*
X+1326300Y-5260300D03*
X-2271000Y-3457000D03*
X-2017000Y-3457000D03*
X-1763000Y-3457000D03*
X-1509000Y-3457000D03*
X-1255000Y-3457000D03*
X-1001000Y-3457000D03*
D13*
X+1585000Y-3426700D03*
X+1585000Y-3934700D03*
X+1585000Y-4442700D03*
D12*
X+1536700Y-2197100D03*
X+266700Y-2197100D03*
X+904000Y-2611100D03*
X-366000Y-2611100D03*
D14*
X+2014000Y-2163000D03*
X+2014000Y-2417000D03*
X+2014000Y-2671000D03*
D12*
X+1021700Y-1617700D03*
X-248300Y-1617700D03*
D15*
X-311400Y-3328700D03*
X-311400Y-4598700D03*
X+290000Y-3309000D03*
X+290000Y-4579000D03*
D16*
X-2900000Y-8200000D02*
X+2613000Y-8200000D01*
X+2613000Y-1097600D01*
X-2900000Y-1097600D01*
X-2900000Y-8200000D01*
M02*
