G04 PROTEUS RS274X GERBER FILE*
%FSLAX45Y45*%
%MOMM*%
G01*
%AMPPAD007*
4,1,36,
0.952500,-1.079500,
-0.952500,-1.079500,
-0.978470,-1.076970,
-1.002480,-1.069700,
-1.024080,-1.058150,
-1.042790,-1.042790,
-1.058150,-1.024070,
-1.069700,-1.002480,
-1.076970,-0.978470,
-1.079500,-0.952500,
-1.079500,0.952500,
-1.076970,0.978470,
-1.069700,1.002480,
-1.058150,1.024070,
-1.042790,1.042790,
-1.024080,1.058150,
-1.002480,1.069700,
-0.978470,1.076970,
-0.952500,1.079500,
0.952500,1.079500,
0.978470,1.076970,
1.002480,1.069700,
1.024080,1.058150,
1.042790,1.042790,
1.058150,1.024070,
1.069700,1.002480,
1.076970,0.978470,
1.079500,0.952500,
1.079500,-0.952500,
1.076970,-0.978470,
1.069700,-1.002480,
1.058150,-1.024070,
1.042790,-1.042790,
1.024080,-1.058150,
1.002480,-1.069700,
0.978470,-1.076970,
0.952500,-1.079500,
0*%
%ADD17PPAD007*%
%AMPPAD008*
4,1,36,
-1.079500,-0.952500,
-1.079500,0.952500,
-1.076970,0.978470,
-1.069700,1.002480,
-1.058150,1.024080,
-1.042790,1.042790,
-1.024070,1.058150,
-1.002480,1.069700,
-0.978470,1.076970,
-0.952500,1.079500,
0.952500,1.079500,
0.978470,1.076970,
1.002480,1.069700,
1.024070,1.058150,
1.042790,1.042790,
1.058150,1.024080,
1.069700,1.002480,
1.076970,0.978470,
1.079500,0.952500,
1.079500,-0.952500,
1.076970,-0.978470,
1.069700,-1.002480,
1.058150,-1.024080,
1.042790,-1.042790,
1.024070,-1.058150,
1.002480,-1.069700,
0.978470,-1.076970,
0.952500,-1.079500,
-0.952500,-1.079500,
-0.978470,-1.076970,
-1.002480,-1.069700,
-1.024070,-1.058150,
-1.042790,-1.042790,
-1.058150,-1.024080,
-1.069700,-1.002480,
-1.076970,-0.978470,
-1.079500,-0.952500,
0*%
%ADD18PPAD008*%
%ADD19C,2.540000*%
%AMPPAD010*
4,1,36,
1.143000,1.016000,
1.143000,-1.016000,
1.140470,-1.041970,
1.133200,-1.065980,
1.121650,-1.087580,
1.106290,-1.106290,
1.087570,-1.121650,
1.065980,-1.133200,
1.041970,-1.140470,
1.016000,-1.143000,
-1.016000,-1.143000,
-1.041970,-1.140470,
-1.065980,-1.133200,
-1.087570,-1.121650,
-1.106290,-1.106290,
-1.121650,-1.087580,
-1.133200,-1.065980,
-1.140470,-1.041970,
-1.143000,-1.016000,
-1.143000,1.016000,
-1.140470,1.041970,
-1.133200,1.065980,
-1.121650,1.087580,
-1.106290,1.106290,
-1.087570,1.121650,
-1.065980,1.133200,
-1.041970,1.140470,
-1.016000,1.143000,
1.016000,1.143000,
1.041970,1.140470,
1.065980,1.133200,
1.087570,1.121650,
1.106290,1.106290,
1.121650,1.087580,
1.133200,1.065980,
1.140470,1.041970,
1.143000,1.016000,
0*%
%ADD70PPAD010*%
%ADD71C,2.032000*%
%ADD16C,0.203200*%
D17*
X-864000Y-7648000D03*
X-864000Y-7394000D03*
X-864000Y-7140000D03*
X-864000Y-6886000D03*
X-864000Y-6632000D03*
X-864000Y-6378000D03*
X-864000Y-6124000D03*
X-864000Y-5870000D03*
X-864000Y-5616000D03*
X-864000Y-5362000D03*
X-864000Y-5108000D03*
X-864000Y-4854000D03*
X-864000Y-4600000D03*
X-864000Y-4346000D03*
X-864000Y-4092000D03*
X-2388000Y-4092000D03*
X-2388000Y-4346000D03*
X-2388000Y-4600000D03*
X-2388000Y-4854000D03*
X-2388000Y-5108000D03*
X-2388000Y-5362000D03*
X-2388000Y-5616000D03*
X-2388000Y-5870000D03*
X-2388000Y-6124000D03*
X-2388000Y-6378000D03*
X-2388000Y-6632000D03*
X-2388000Y-6886000D03*
X-2388000Y-7140000D03*
X-2388000Y-7394000D03*
X-2388000Y-7648000D03*
X+564300Y-5260300D03*
X+818300Y-5260300D03*
X+1072300Y-5260300D03*
X+1326300Y-5260300D03*
D18*
X-2271000Y-3457000D03*
X-2017000Y-3457000D03*
X-1763000Y-3457000D03*
X-1509000Y-3457000D03*
X-1255000Y-3457000D03*
X-1001000Y-3457000D03*
D19*
X+1585000Y-3426700D03*
X+1585000Y-3934700D03*
X+1585000Y-4442700D03*
D17*
X+1536700Y-2197100D03*
X+266700Y-2197100D03*
X+904000Y-2611100D03*
X-366000Y-2611100D03*
D70*
X+2014000Y-2163000D03*
X+2014000Y-2417000D03*
X+2014000Y-2671000D03*
D17*
X+1021700Y-1617700D03*
X-248300Y-1617700D03*
D71*
X-311400Y-3328700D03*
X-311400Y-4598700D03*
X+290000Y-3309000D03*
X+290000Y-4579000D03*
D16*
X-2900000Y-8200000D02*
X+2613000Y-8200000D01*
X+2613000Y-1097600D01*
X-2900000Y-1097600D01*
X-2900000Y-8200000D01*
M02*
