M48
METRIC,TZ
T01C1.0160
T02C0.7620
%
T01
X-8640Y-76480
X-8640Y-73940
X-8640Y-71400
X-8640Y-68860
X-8640Y-66320
X-8640Y-63780
X-8640Y-61240
X-8640Y-58700
X-8640Y-56160
X-8640Y-53620
X-8640Y-51080
X-8640Y-48540
X-8640Y-46000
X-8640Y-43460
X-8640Y-40920
X-23880Y-40920
X-23880Y-43460
X-23880Y-46000
X-23880Y-48540
X-23880Y-51080
X-23880Y-53620
X-23880Y-56160
X-23880Y-58700
X-23880Y-61240
X-23880Y-63780
X-23880Y-66320
X-23880Y-68860
X-23880Y-71400
X-23880Y-73940
X-23880Y-76480
X+5643Y-52603
X+8183Y-52603
X+10723Y-52603
X+13263Y-52603
X-22710Y-34570
X-20170Y-34570
X-17630Y-34570
X-15090Y-34570
X-12550Y-34570
X-10010Y-34570
X+15850Y-34267
X+15850Y-39347
X+15850Y-44427
X+15367Y-21971
X+2667Y-21971
X+9040Y-26111
X-3660Y-26111
X+20140Y-21630
X+20140Y-24170
X+20140Y-26710
X+10217Y-16177
X-2483Y-16177
T02
X-3114Y-33287
X-3114Y-45987
X+2900Y-33090
X+2900Y-45790
M30
