G04 PROTEUS RS274X GERBER FILE*
%FSLAX45Y45*%
%MOMM*%
G01*
%ADD16C,0.203200*%
%ADD26C,0.127000*%
%ADD27C,0.063500*%
D16*
X-908901Y-7603099D02*
X-819099Y-7692901D01*
X-908901Y-7692901D02*
X-819099Y-7603099D01*
X-908901Y-7349099D02*
X-819099Y-7438901D01*
X-908901Y-7438901D02*
X-819099Y-7349099D01*
X-908901Y-7095099D02*
X-819099Y-7184901D01*
X-908901Y-7184901D02*
X-819099Y-7095099D01*
X-908901Y-6841099D02*
X-819099Y-6930901D01*
X-908901Y-6930901D02*
X-819099Y-6841099D01*
X-908901Y-6587099D02*
X-819099Y-6676901D01*
X-908901Y-6676901D02*
X-819099Y-6587099D01*
X-908901Y-6333099D02*
X-819099Y-6422901D01*
X-908901Y-6422901D02*
X-819099Y-6333099D01*
X-908901Y-6079099D02*
X-819099Y-6168901D01*
X-908901Y-6168901D02*
X-819099Y-6079099D01*
X-908901Y-5825099D02*
X-819099Y-5914901D01*
X-908901Y-5914901D02*
X-819099Y-5825099D01*
X-908901Y-5571099D02*
X-819099Y-5660901D01*
X-908901Y-5660901D02*
X-819099Y-5571099D01*
X-908901Y-5317099D02*
X-819099Y-5406901D01*
X-908901Y-5406901D02*
X-819099Y-5317099D01*
X-908901Y-5063099D02*
X-819099Y-5152901D01*
X-908901Y-5152901D02*
X-819099Y-5063099D01*
X-908901Y-4809099D02*
X-819099Y-4898901D01*
X-908901Y-4898901D02*
X-819099Y-4809099D01*
X-908901Y-4555099D02*
X-819099Y-4644901D01*
X-908901Y-4644901D02*
X-819099Y-4555099D01*
X-908901Y-4301099D02*
X-819099Y-4390901D01*
X-908901Y-4390901D02*
X-819099Y-4301099D01*
X-908901Y-4047099D02*
X-819099Y-4136901D01*
X-908901Y-4136901D02*
X-819099Y-4047099D01*
X-2432901Y-4047099D02*
X-2343099Y-4136901D01*
X-2432901Y-4136901D02*
X-2343099Y-4047099D01*
X-2432901Y-4301099D02*
X-2343099Y-4390901D01*
X-2432901Y-4390901D02*
X-2343099Y-4301099D01*
X-2432901Y-4555099D02*
X-2343099Y-4644901D01*
X-2432901Y-4644901D02*
X-2343099Y-4555099D01*
X-2432901Y-4809099D02*
X-2343099Y-4898901D01*
X-2432901Y-4898901D02*
X-2343099Y-4809099D01*
X-2432901Y-5063099D02*
X-2343099Y-5152901D01*
X-2432901Y-5152901D02*
X-2343099Y-5063099D01*
X-2432901Y-5317099D02*
X-2343099Y-5406901D01*
X-2432901Y-5406901D02*
X-2343099Y-5317099D01*
X-2432901Y-5571099D02*
X-2343099Y-5660901D01*
X-2432901Y-5660901D02*
X-2343099Y-5571099D01*
X-2432901Y-5825099D02*
X-2343099Y-5914901D01*
X-2432901Y-5914901D02*
X-2343099Y-5825099D01*
X-2432901Y-6079099D02*
X-2343099Y-6168901D01*
X-2432901Y-6168901D02*
X-2343099Y-6079099D01*
X-2432901Y-6333099D02*
X-2343099Y-6422901D01*
X-2432901Y-6422901D02*
X-2343099Y-6333099D01*
X-2432901Y-6587099D02*
X-2343099Y-6676901D01*
X-2432901Y-6676901D02*
X-2343099Y-6587099D01*
X-2432901Y-6841099D02*
X-2343099Y-6930901D01*
X-2432901Y-6930901D02*
X-2343099Y-6841099D01*
X-2432901Y-7095099D02*
X-2343099Y-7184901D01*
X-2432901Y-7184901D02*
X-2343099Y-7095099D01*
X-2432901Y-7349099D02*
X-2343099Y-7438901D01*
X-2432901Y-7438901D02*
X-2343099Y-7349099D01*
X-2432901Y-7603099D02*
X-2343099Y-7692901D01*
X-2432901Y-7692901D02*
X-2343099Y-7603099D01*
X+519399Y-5215399D02*
X+609201Y-5305201D01*
X+519399Y-5305201D02*
X+609201Y-5215399D01*
X+773399Y-5215399D02*
X+863201Y-5305201D01*
X+773399Y-5305201D02*
X+863201Y-5215399D01*
X+1027399Y-5215399D02*
X+1117201Y-5305201D01*
X+1027399Y-5305201D02*
X+1117201Y-5215399D01*
X+1281399Y-5215399D02*
X+1371201Y-5305201D01*
X+1281399Y-5305201D02*
X+1371201Y-5215399D01*
X-2315901Y-3412099D02*
X-2226099Y-3501901D01*
X-2315901Y-3501901D02*
X-2226099Y-3412099D01*
X-2061901Y-3412099D02*
X-1972099Y-3501901D01*
X-2061901Y-3501901D02*
X-1972099Y-3412099D01*
X-1807901Y-3412099D02*
X-1718099Y-3501901D01*
X-1807901Y-3501901D02*
X-1718099Y-3412099D01*
X-1553901Y-3412099D02*
X-1464099Y-3501901D01*
X-1553901Y-3501901D02*
X-1464099Y-3412099D01*
X-1299901Y-3412099D02*
X-1210099Y-3501901D01*
X-1299901Y-3501901D02*
X-1210099Y-3412099D01*
X-1045901Y-3412099D02*
X-956099Y-3501901D01*
X-1045901Y-3501901D02*
X-956099Y-3412099D01*
X+1540099Y-3381799D02*
X+1629901Y-3471601D01*
X+1540099Y-3471601D02*
X+1629901Y-3381799D01*
X+1540099Y-3889799D02*
X+1629901Y-3979601D01*
X+1540099Y-3979601D02*
X+1629901Y-3889799D01*
X+1540099Y-4397799D02*
X+1629901Y-4487601D01*
X+1540099Y-4487601D02*
X+1629901Y-4397799D01*
X+1491799Y-2152199D02*
X+1581601Y-2242001D01*
X+1491799Y-2242001D02*
X+1581601Y-2152199D01*
X+221799Y-2152199D02*
X+311601Y-2242001D01*
X+221799Y-2242001D02*
X+311601Y-2152199D01*
X+859099Y-2566199D02*
X+948901Y-2656001D01*
X+859099Y-2656001D02*
X+948901Y-2566199D01*
X-410901Y-2566199D02*
X-321099Y-2656001D01*
X-410901Y-2656001D02*
X-321099Y-2566199D01*
X+1969099Y-2118099D02*
X+2058901Y-2207901D01*
X+1969099Y-2207901D02*
X+2058901Y-2118099D01*
X+1969099Y-2372099D02*
X+2058901Y-2461901D01*
X+1969099Y-2461901D02*
X+2058901Y-2372099D01*
X+1969099Y-2626099D02*
X+2058901Y-2715901D01*
X+1969099Y-2715901D02*
X+2058901Y-2626099D01*
X+976799Y-1572799D02*
X+1066601Y-1662601D01*
X+976799Y-1662601D02*
X+1066601Y-1572799D01*
X-293201Y-1572799D02*
X-203399Y-1662601D01*
X-293201Y-1662601D02*
X-203399Y-1572799D01*
X-311400Y-3265200D02*
X-311400Y-3392200D01*
X-374900Y-3328700D02*
X-247900Y-3328700D01*
X-311400Y-4535200D02*
X-311400Y-4662200D01*
X-374900Y-4598700D02*
X-247900Y-4598700D01*
X+290000Y-3245500D02*
X+290000Y-3372500D01*
X+226500Y-3309000D02*
X+353500Y-3309000D01*
X+290000Y-4515500D02*
X+290000Y-4642500D01*
X+226500Y-4579000D02*
X+353500Y-4579000D01*
X-2900000Y-8200000D02*
X+2613000Y-8200000D01*
X+2613000Y-1097600D01*
X-2900000Y-1097600D01*
X-2900000Y-8200000D01*
D26*
X-2910160Y-9226160D02*
X-266020Y-9226160D01*
X-266020Y-8464160D01*
X-2910160Y-8464160D01*
X-2910160Y-9226160D01*
D27*
X-2442798Y-8464160D02*
X-2442798Y-9226160D01*
X-1629998Y-8464160D02*
X-1629998Y-9226160D01*
X-796878Y-8464160D02*
X-796878Y-9226160D01*
X-2910160Y-8737210D02*
X-266020Y-8737210D01*
X-2910160Y-8978510D02*
X-266020Y-8978510D01*
D26*
X-2853010Y-8627990D02*
X-2837770Y-8643230D01*
X-2776810Y-8643230D01*
X-2761570Y-8627990D01*
X-2761570Y-8612750D01*
X-2776810Y-8597510D01*
X-2837770Y-8597510D01*
X-2853010Y-8582270D01*
X-2853010Y-8567030D01*
X-2837770Y-8551790D01*
X-2776810Y-8551790D01*
X-2761570Y-8567030D01*
X-2639650Y-8551790D02*
X-2731090Y-8643230D01*
X-2731090Y-8551790D02*
X-2685370Y-8597510D01*
X-2609170Y-8643230D02*
X-2609170Y-8551790D01*
X-2563450Y-8597510D01*
X-2517730Y-8551790D01*
X-2517730Y-8643230D01*
X-2385650Y-8627990D02*
X-2370410Y-8643230D01*
X-2309450Y-8643230D01*
X-2294210Y-8627990D01*
X-2294210Y-8612750D01*
X-2309450Y-8597510D01*
X-2370410Y-8597510D01*
X-2385650Y-8582270D01*
X-2385650Y-8567030D01*
X-2370410Y-8551790D01*
X-2309450Y-8551790D01*
X-2294210Y-8567030D01*
X-2248490Y-8551790D02*
X-2187530Y-8551790D01*
X-2218010Y-8551790D02*
X-2218010Y-8643230D01*
X-2248490Y-8643230D02*
X-2187530Y-8643230D01*
X-2141810Y-8551790D02*
X-2050370Y-8551790D01*
X-2141810Y-8643230D01*
X-2050370Y-8643230D01*
X-1928450Y-8643230D02*
X-2019890Y-8643230D01*
X-2019890Y-8551790D01*
X-1928450Y-8551790D01*
X-2019890Y-8597510D02*
X-1958930Y-8597510D01*
X-1572850Y-8643230D02*
X-1572850Y-8551790D01*
X-1496650Y-8551790D01*
X-1481410Y-8567030D01*
X-1481410Y-8582270D01*
X-1496650Y-8597510D01*
X-1572850Y-8597510D01*
X-1450930Y-8551790D02*
X-1450930Y-8643230D01*
X-1359490Y-8643230D01*
X-1329010Y-8643230D02*
X-1329010Y-8582270D01*
X-1298530Y-8551790D01*
X-1268050Y-8551790D01*
X-1237570Y-8582270D01*
X-1237570Y-8643230D01*
X-1329010Y-8612750D02*
X-1237570Y-8612750D01*
X-1207090Y-8551790D02*
X-1115650Y-8551790D01*
X-1161370Y-8551790D02*
X-1161370Y-8643230D01*
X-993730Y-8643230D02*
X-1085170Y-8643230D01*
X-1085170Y-8551790D01*
X-993730Y-8551790D01*
X-1085170Y-8597510D02*
X-1024210Y-8597510D01*
X-963250Y-8643230D02*
X-963250Y-8551790D01*
X-902290Y-8551790D01*
X-871810Y-8582270D01*
X-871810Y-8612750D01*
X-902290Y-8643230D01*
X-963250Y-8643230D01*
X-739730Y-8582270D02*
X-709250Y-8551790D01*
X-678770Y-8551790D01*
X-648290Y-8582270D01*
X-648290Y-8612750D01*
X-678770Y-8643230D01*
X-709250Y-8643230D01*
X-739730Y-8612750D01*
X-739730Y-8582270D01*
X-678770Y-8612750D02*
X-648290Y-8643230D01*
X-617810Y-8551790D02*
X-526370Y-8551790D01*
X-572090Y-8551790D02*
X-572090Y-8643230D01*
X-404450Y-8551790D02*
X-495890Y-8643230D01*
X-495890Y-8551790D02*
X-450170Y-8597510D01*
D16*
X-2663780Y-8788010D02*
X-2663780Y-8915010D01*
X-2727280Y-8851510D02*
X-2600280Y-8851510D01*
D26*
X-2366600Y-8876910D02*
X-2366600Y-8826110D01*
X-2353900Y-8813410D01*
X-2303100Y-8813410D01*
X-2290400Y-8826110D01*
X-2290400Y-8876910D01*
X-2303100Y-8889610D01*
X-2353900Y-8889610D01*
X-2366600Y-8876910D01*
X-2366600Y-8889610D02*
X-2290400Y-8813410D01*
X-2226900Y-8876910D02*
X-2214200Y-8876910D01*
X-2214200Y-8889610D01*
X-2226900Y-8889610D01*
X-2226900Y-8876910D01*
X-2150700Y-8813410D02*
X-2087200Y-8813410D01*
X-2087200Y-8826110D01*
X-2150700Y-8889610D01*
X-1985600Y-8826110D02*
X-1998300Y-8813410D01*
X-2036400Y-8813410D01*
X-2049100Y-8826110D01*
X-2049100Y-8876910D01*
X-2036400Y-8889610D01*
X-1998300Y-8889610D01*
X-1985600Y-8876910D01*
X-1985600Y-8864210D01*
X-1998300Y-8851510D01*
X-2049100Y-8851510D01*
X-1947500Y-8826110D02*
X-1934800Y-8813410D01*
X-1896700Y-8813410D01*
X-1884000Y-8826110D01*
X-1884000Y-8838810D01*
X-1896700Y-8851510D01*
X-1934800Y-8851510D01*
X-1947500Y-8864210D01*
X-1947500Y-8889610D01*
X-1884000Y-8889610D01*
X-1858600Y-8889610D02*
X-1858600Y-8838810D01*
X-1858600Y-8851510D02*
X-1845900Y-8838810D01*
X-1820500Y-8864210D01*
X-1795100Y-8838810D01*
X-1782400Y-8851510D01*
X-1782400Y-8889610D01*
X-1757000Y-8889610D02*
X-1757000Y-8838810D01*
X-1757000Y-8851510D02*
X-1744300Y-8838810D01*
X-1718900Y-8864210D01*
X-1693500Y-8838810D01*
X-1680800Y-8851510D01*
X-1680800Y-8889610D01*
X-1464900Y-8813410D02*
X-1541100Y-8889610D01*
X-1541100Y-8813410D02*
X-1503000Y-8851510D01*
X-1363300Y-8889610D02*
X-1439500Y-8889610D01*
X-1439500Y-8813410D01*
X-1363300Y-8813410D01*
X-1439500Y-8851510D02*
X-1388700Y-8851510D01*
X-1337900Y-8876910D02*
X-1325200Y-8889610D01*
X-1274400Y-8889610D01*
X-1261700Y-8876910D01*
X-1261700Y-8864210D01*
X-1274400Y-8851510D01*
X-1325200Y-8851510D01*
X-1337900Y-8838810D01*
X-1337900Y-8826110D01*
X-1325200Y-8813410D01*
X-1274400Y-8813410D01*
X-1261700Y-8826110D01*
X-619080Y-8864210D02*
X-695280Y-8864210D01*
X-644480Y-8813410D01*
X-644480Y-8889610D01*
D16*
X-2708681Y-9047909D02*
X-2618879Y-9137711D01*
X-2708681Y-9137711D02*
X-2618879Y-9047909D01*
D26*
X-2341200Y-9080110D02*
X-2315800Y-9054710D01*
X-2315800Y-9130910D01*
X-2226900Y-9118210D02*
X-2214200Y-9118210D01*
X-2214200Y-9130910D01*
X-2226900Y-9130910D01*
X-2226900Y-9118210D01*
X-2163400Y-9118210D02*
X-2163400Y-9067410D01*
X-2150700Y-9054710D01*
X-2099900Y-9054710D01*
X-2087200Y-9067410D01*
X-2087200Y-9118210D01*
X-2099900Y-9130910D01*
X-2150700Y-9130910D01*
X-2163400Y-9118210D01*
X-2163400Y-9130910D02*
X-2087200Y-9054710D01*
X-2036400Y-9080110D02*
X-2011000Y-9054710D01*
X-2011000Y-9130910D01*
X-1884000Y-9067410D02*
X-1896700Y-9054710D01*
X-1934800Y-9054710D01*
X-1947500Y-9067410D01*
X-1947500Y-9118210D01*
X-1934800Y-9130910D01*
X-1896700Y-9130910D01*
X-1884000Y-9118210D01*
X-1884000Y-9105510D01*
X-1896700Y-9092810D01*
X-1947500Y-9092810D01*
X-1858600Y-9130910D02*
X-1858600Y-9080110D01*
X-1858600Y-9092810D02*
X-1845900Y-9080110D01*
X-1820500Y-9105510D01*
X-1795100Y-9080110D01*
X-1782400Y-9092810D01*
X-1782400Y-9130910D01*
X-1757000Y-9130910D02*
X-1757000Y-9080110D01*
X-1757000Y-9092810D02*
X-1744300Y-9080110D01*
X-1718900Y-9105510D01*
X-1693500Y-9080110D01*
X-1680800Y-9092810D01*
X-1680800Y-9130910D01*
X-1464900Y-9054710D02*
X-1541100Y-9130910D01*
X-1541100Y-9054710D02*
X-1503000Y-9092810D01*
X-1363300Y-9130910D02*
X-1439500Y-9130910D01*
X-1439500Y-9054710D01*
X-1363300Y-9054710D01*
X-1439500Y-9092810D02*
X-1388700Y-9092810D01*
X-1337900Y-9118210D02*
X-1325200Y-9130910D01*
X-1274400Y-9130910D01*
X-1261700Y-9118210D01*
X-1261700Y-9105510D01*
X-1274400Y-9092810D01*
X-1325200Y-9092810D01*
X-1337900Y-9080110D01*
X-1337900Y-9067410D01*
X-1325200Y-9054710D01*
X-1274400Y-9054710D01*
X-1261700Y-9067410D01*
X-619080Y-9054710D02*
X-682580Y-9054710D01*
X-682580Y-9080110D01*
X-631780Y-9080110D01*
X-619080Y-9092810D01*
X-619080Y-9118210D01*
X-631780Y-9130910D01*
X-669880Y-9130910D01*
X-682580Y-9118210D01*
X-580980Y-9067410D02*
X-568280Y-9054710D01*
X-530180Y-9054710D01*
X-517480Y-9067410D01*
X-517480Y-9080110D01*
X-530180Y-9092810D01*
X-568280Y-9092810D01*
X-580980Y-9105510D01*
X-580980Y-9130910D01*
X-517480Y-9130910D01*
M02*
